<svg xmlns="http://www.w3.org/2000/svg" viewBox="0 0 512 512">
  <defs>
    <linearGradient id="grad1" x1="0%" y1="0%" x2="100%" y2="100%">
      <stop offset="0%" style="stop-color:#3b82f6;stop-opacity:1" />
      <stop offset="100%" style="stop-color:#8b5cf6;stop-opacity:1" />
    </linearGradient>
  </defs>

  <!-- Background -->
  <rect width="512" height="512" rx="80" fill="url(#grad1)"/>

  <!-- Card shape with shadow -->
  <g transform="translate(96, 96)">
    <!-- Shadow -->
    <rect x="8" y="8" width="312" height="312" rx="24" fill="rgba(0,0,0,0.15)"/>
    <!-- Card -->
    <rect width="312" height="312" rx="24" fill="white"/>

    <!-- Multiplication symbol -->
    <g transform="translate(156, 156)">
      <!-- × symbol -->
      <g stroke="#3b82f6" stroke-width="32" stroke-linecap="round">
        <line x1="-60" y1="-60" x2="60" y2="60"/>
        <line x1="60" y1="-60" x2="-60" y2="60"/>
      </g>
    </g>

    <!-- Decorative stars -->
    <g fill="#fbbf24">
      <!-- Top left star -->
      <path transform="translate(40, 40)" d="M0,-12 L3,-4 L12,-4 L5,2 L7,10 L0,5 L-7,10 L-5,2 L-12,-4 L-3,-4 Z"/>
      <!-- Top right star -->
      <path transform="translate(272, 40)" d="M0,-12 L3,-4 L12,-4 L5,2 L7,10 L0,5 L-7,10 L-5,2 L-12,-4 L-3,-4 Z"/>
      <!-- Bottom left star -->
      <path transform="translate(40, 272)" d="M0,-12 L3,-4 L12,-4 L5,2 L7,10 L0,5 L-7,10 L-5,2 L-12,-4 L-3,-4 Z"/>
      <!-- Bottom right star -->
      <path transform="translate(272, 272)" d="M0,-12 L3,-4 L12,-4 L5,2 L7,10 L0,5 L-7,10 L-5,2 L-12,-4 L-3,-4 Z"/>
    </g>
  </g>
</svg>
